<svg width="12" height="12" viewBox="0 0 12 12" fill="none" xmlns="http://www.w3.org/2000/svg">
<path fill-rule="evenodd" clip-rule="evenodd" d="M3.15689e-05 3.79812C3.78014e-05 3.79812 4.38092e-05 3.79812 4.8995e-05 3.79812L5.4453 0.16795C5.7812 -0.055983 6.2188 -0.0559834 6.5547 0.167949L12 3.79812C12 3.79812 12 3.79812 12 3.79812H12C12 3.79812 12 3.79813 12 3.79815V10.7981C12 11.3504 11.5523 11.7981 11 11.7981L9 11.7981C8.44772 11.7981 8 11.3504 8 10.7981V9.29812C8 8.19355 7.10457 7.29812 6 7.29812C4.89543 7.29812 4 8.19355 4 9.29812V10.7981C4 11.3504 3.55229 11.7981 3 11.7981L1 11.7981C0.447716 11.7981 0 11.3504 0 10.7981V3.79815C0 3.79813 1.22755e-05 3.79812 2.74181e-05 3.79812H3.15689e-05Z" fill="white" fill-opacity="0.5"/>
</svg>
