<svg width="30" height="29" viewBox="0 0 30 29" fill="none" xmlns="http://www.w3.org/2000/svg">
<path d="M29.2811 14.5C29.2811 6.49187 22.7263 0 14.6406 0C6.5548 0 0 6.49187 0 14.5C0 22.5081 6.5548 29 14.6406 29C22.7263 29 29.2811 22.5081 29.2811 14.5Z" fill="#FF62A5"/>
<path d="M20.7833 8.41623H21.8077V11.4575H20.7833V12.4721H19.7589V13.4866H18.7345V14.5012H19.7589V15.5157H20.7833V16.5303H21.8077V20.5861H20.7833V21.6007H18.7369V20.5861H17.7125V19.5716H16.6881V18.557H15.6637V17.5424H14.6393V20.5837H13.6149V21.5983H8.49784V20.5837H7.47345V8.41863H8.49784V10.4453H9.52223V9.43079H10.5466V8.41623H8.50026V7.40168H13.6174V8.41623H14.6418V11.4575H15.6662V10.4429H16.6905V9.42839H17.7149V8.41383H18.7393V7.39928H20.7857V8.41383L20.7833 8.41623Z" fill="white"/>
</svg>
