<svg width="60" height="23" viewBox="0 0 60 23" fill="none" xmlns="http://www.w3.org/2000/svg">
<path d="M51.2228 2.91998H13.6817C8.83419 2.91998 4.90451 6.81194 4.90451 11.6129C4.90451 16.4139 8.83419 20.3058 13.6817 20.3058H51.2228C56.0703 20.3058 60 16.4139 60 11.6129C60 6.81194 56.0703 2.91998 51.2228 2.91998Z" fill="white"/>
<path d="M24.0094 7.01859H25.7189V11.8295L27.9146 9.34171H30.0795L27.6923 11.7991L30.1716 15.9066H28.0537L26.4399 13.0895L25.7189 13.8322V15.9066H24.0094V7.02038V7.01859Z" fill="#FF62A5"/>
<path d="M33.0757 9.31127V13.2864C33.0757 13.6622 33.1209 13.9432 33.2094 14.1329C33.3667 14.4676 33.6775 14.6358 34.1401 14.6358C34.731 14.6358 35.1376 14.3978 35.3563 13.9217C35.4701 13.664 35.5262 13.3221 35.5262 12.8998V9.31306H37.2917V15.9066H35.6003V14.9741C35.584 14.9938 35.5442 15.0546 35.4792 15.1549C35.4141 15.2551 35.3364 15.3446 35.2479 15.4215C34.975 15.6632 34.713 15.8296 34.46 15.9173C34.207 16.0068 33.9088 16.0498 33.5673 16.0498C32.5842 16.0498 31.9228 15.699 31.5812 14.9974C31.3897 14.6108 31.2957 14.0398 31.2957 13.2846V9.30948H33.0793L33.0757 9.31127Z" fill="#FF62A5"/>
<path d="M40.2861 15.9048H38.5458V6.98816H40.2861V15.9048Z" fill="#FF62A5"/>
<path d="M44.8563 6.90759C44.9467 6.91296 45.0678 6.92191 45.2232 6.93444V8.33762C45.1256 8.32509 44.9612 8.31614 44.7317 8.31077C44.5021 8.3054 44.3431 8.35551 44.2546 8.46111C44.1678 8.5685 44.1227 8.68662 44.1227 8.81549V9.37211H45.2648V10.5874H44.1227V15.9048H42.3932V10.5874H41.4156V9.37211H42.3679V8.94793C42.3679 8.24276 42.4872 7.75594 42.7276 7.48927C42.9806 7.09373 43.5896 6.89685 44.5546 6.89685C44.6648 6.89685 44.7642 6.90043 44.8545 6.9058L44.8563 6.90759Z" fill="#FF62A5"/>
<path d="M47.2381 17.1881L47.4586 17.2006C47.6303 17.2077 47.7929 17.2024 47.9465 17.1827C48.1019 17.163 48.232 17.1165 48.3368 17.0431C48.438 16.9751 48.5338 16.8319 48.6206 16.6135C48.7073 16.3952 48.7453 16.2627 48.7344 16.2144L46.2876 9.33096H48.223L49.6759 14.1956L51.0511 9.33096H52.9016L50.6192 15.8153C50.1783 17.0664 49.8295 17.8413 49.5729 18.142C49.3163 18.4427 48.8031 18.593 48.0314 18.593C47.876 18.593 47.7513 18.593 47.6592 18.5895C47.5652 18.5877 47.4242 18.5805 47.2381 18.568V17.1881Z" fill="#FF62A5"/>
<path d="M21.8499 11.5816C21.8499 5.60584 16.9586 0.761536 10.9249 0.761536C4.89126 0.761536 0 5.60584 0 11.5816C0 17.5574 4.89126 22.4017 10.9249 22.4017C16.9586 22.4017 21.8499 17.5574 21.8499 11.5816Z" fill="#FF62A5"/>
<path d="M15.5087 7.04182H16.2731V9.31125H15.5087V10.0683H14.7443V10.8254H13.9799V11.5825H14.7443V12.3395H15.5087V13.0966H16.2731V16.1231H15.5087V16.8802H13.9817V16.1231H13.2173V15.366H12.4529V14.609H11.6885V13.8519H10.9241V16.1213H10.1596V16.8784H6.34119V16.1213H5.57678V7.04361H6.34119V8.55597H7.10561V7.7989H7.87002V7.04182H6.343V6.28475H10.1614V7.04182H10.9259V9.31125H11.6903V8.55418H12.4547V7.79711H13.2191V7.04003H13.9835V6.28296H15.5105V7.04003L15.5087 7.04182Z" fill="white"/>
</svg>
