<svg width="78" height="42" viewBox="0 0 78 42" fill="none" xmlns="http://www.w3.org/2000/svg">
<g filter="url(#filter0_d_537_465)">
<path d="M59.2228 10.92H21.6817C16.8342 10.92 12.9045 14.8119 12.9045 19.6129C12.9045 24.4139 16.8342 28.3058 21.6817 28.3058H59.2228C64.0703 28.3058 68 24.4139 68 19.6129C68 14.8119 64.0703 10.92 59.2228 10.92Z" fill="white"/>
<path d="M32.0094 15.0186H33.7189V19.8295L35.9146 17.3417H38.0795L35.6923 19.7991L38.1716 23.9066H36.0537L34.4399 21.0895L33.7189 21.8322V23.9066H32.0094V15.0204V15.0186Z" fill="#FF62A5"/>
<path d="M41.0757 17.3113V21.2864C41.0757 21.6622 41.1209 21.9432 41.2095 22.1329C41.3667 22.4676 41.6775 22.6358 42.1401 22.6358C42.7311 22.6358 43.1377 22.3978 43.3563 21.9217C43.4702 21.664 43.5262 21.3221 43.5262 20.8998V17.3131H45.2917V23.9066H43.6003V22.9741C43.584 22.9938 43.5443 23.0546 43.4792 23.1549C43.4141 23.2551 43.3364 23.3446 43.2479 23.4215C42.975 23.6632 42.713 23.8296 42.46 23.9173C42.207 24.0068 41.9088 24.0498 41.5673 24.0498C40.5842 24.0498 39.9228 23.699 39.5812 22.9974C39.3897 22.6108 39.2957 22.0398 39.2957 21.2846V17.3095H41.0793L41.0757 17.3113Z" fill="#FF62A5"/>
<path d="M48.2861 23.9048H46.5458V14.9882H48.2861V23.9048Z" fill="#FF62A5"/>
<path d="M52.8563 14.9076C52.9467 14.913 53.0678 14.9219 53.2232 14.9344V16.3376C53.1256 16.3251 52.9612 16.3161 52.7317 16.3108C52.5021 16.3054 52.3431 16.3555 52.2546 16.4611C52.1678 16.5685 52.1227 16.6866 52.1227 16.8155V17.3721H53.2648V18.5874H52.1227V23.9048H50.3932V18.5874H49.4156V17.3721H50.3679V16.9479C50.3679 16.2428 50.4872 15.7559 50.7276 15.4893C50.9806 15.0937 51.5896 14.8969 52.5546 14.8969C52.6648 14.8969 52.7642 14.9004 52.8545 14.9058L52.8563 14.9076Z" fill="#FF62A5"/>
<path d="M55.2381 25.1881L55.4586 25.2006C55.6303 25.2077 55.7929 25.2024 55.9465 25.1827C56.1019 25.163 56.232 25.1165 56.3368 25.0431C56.438 24.9751 56.5338 24.8319 56.6206 24.6135C56.7073 24.3952 56.7453 24.2627 56.7344 24.2144L54.2876 17.331H56.223L57.6759 22.1956L59.0511 17.331H60.9016L58.6192 23.8153C58.1783 25.0664 57.8295 25.8413 57.5729 26.142C57.3163 26.4427 56.8031 26.593 56.0314 26.593C55.876 26.593 55.7513 26.593 55.6592 26.5895C55.5652 26.5877 55.4242 26.5805 55.2381 26.568V25.1881Z" fill="#FF62A5"/>
<path d="M29.8499 19.5816C29.8499 13.6058 24.9586 8.76154 18.9249 8.76154C12.8913 8.76154 8 13.6058 8 19.5816C8 25.5574 12.8913 30.4017 18.9249 30.4017C24.9586 30.4017 29.8499 25.5574 29.8499 19.5816Z" fill="#FF62A5"/>
<path d="M23.5087 15.0418H24.2731V17.3113H23.5087V18.0683H22.7443V18.8254H21.9799V19.5825H22.7443V20.3395H23.5087V21.0966H24.2731V24.1231H23.5087V24.8802H21.9817V24.1231H21.2173V23.366H20.4529V22.609H19.6885V21.8519H18.9241V24.1213H18.1596V24.8784H14.3412V24.1213H13.5768V15.0436H14.3412V16.556H15.1056V15.7989H15.87V15.0418H14.343V14.2847H18.1614V15.0418H18.9259V17.3113H19.6903V16.5542H20.4547V15.7971H21.2191V15.04H21.9835V14.283H23.5105V15.04L23.5087 15.0418Z" fill="white"/>
</g>
<defs>
<filter id="filter0_d_537_465" x="0" y="0.761536" width="80" height="41.6401" filterUnits="userSpaceOnUse" color-interpolation-filters="sRGB">
<feFlood flood-opacity="0" result="BackgroundImageFix"/>
<feColorMatrix in="SourceAlpha" type="matrix" values="0 0 0 0 0 0 0 0 0 0 0 0 0 0 0 0 0 0 127 0" result="hardAlpha"/>
<feOffset dx="2" dy="2"/>
<feGaussianBlur stdDeviation="5"/>
<feColorMatrix type="matrix" values="0 0 0 0 0 0 0 0 0 0 0 0 0 0 0 0 0 0 0.35 0"/>
<feBlend mode="normal" in2="BackgroundImageFix" result="effect1_dropShadow_537_465"/>
<feBlend mode="normal" in="SourceGraphic" in2="effect1_dropShadow_537_465" result="shape"/>
</filter>
</defs>
</svg>
